# xmcd CD database file
#
# Track frame offsets:
#	183
#	22818
#	81803
#	130875
#	155673
#	179605
#	198065
#	214498
#	250580
#
# Disc length: 3604 seconds
#
# Revision: 0
# Processed by: cddbd v1.5.1PL0 Copyright (c) Steve Scherf et al.
# Submitted via: CDex 1.51
#
DISCID=730e1209
DTITLE=Jimi Hendrix - The Master's Masters
DYEAR=1970
DGENRE=Blues
TTITLE0=Hendrix/McLaughlin Jam
TTITLE1=Look Over Yonder
TTITLE2=Seven Dollars in My Pocket Blues/Jungle Jam/Devil's Jam
TTITLE3=All Along the Watchtower
TTITLE4=Red House/Electric Church Jam
TTITLE5=Midnight
TTITLE6=Axis: Bold as Love
TTITLE7=Jazz Jimi Jazz/Electric Ladyland
TTITLE8=Crash Landing
EXTD=YEAR: 1970
EXTT0=
EXTT1=
EXTT2=
EXTT3=
EXTT4=
EXTT5=
EXTT6=
EXTT7=
EXTT8=
PLAYORDER=
